<svg id="Layer_1" data-name="Layer 1" xmlns="http://www.w3.org/2000/svg" xmlns:xlink="http://www.w3.org/1999/xlink" viewBox="0 0 80 80"><defs><style>.cls-1{fill:url(#linear-gradient);}.cls-2,.cls-3,.cls-4{fill:#070707;}.cls-3{opacity:0.14;}.cls-4{opacity:0.3;}.cls-5{fill:#08090a;}.cls-6{fill:#f18a5c;}</style><linearGradient id="linear-gradient" x1="41.94" y1="17.58" x2="38.61" y2="71.97" gradientUnits="userSpaceOnUse"><stop offset="0" stop-color="#f9f1e1"/><stop offset="1" stop-color="#faf8fa"/></linearGradient></defs><path class="cls-1" d="M74.11,34.38C70.67,27,64.91,23,59,19.35h0a89.47,89.47,0,0,1-11.58-9c-.21-.2-.48-.33-.71-.51a.69.69,0,0,0-1,0C44,11.28,42.48,10.91,41,9.25c-.15-.17-.37-.26-.51-.44-.82-1-1.47-.87-2.31.12-1.82,2.13-2,2.16-4.16.68-1.09-.74-1.81-.53-2.63.47a64.85,64.85,0,0,1-10.08,9.63c-2.71,2.15-5.4,4.34-7.94,6.78A38.59,38.59,0,0,0,4.66,38.16a25,25,0,0,0-1.4,17.2h0c1.37,5.8,4.16,10,9,12A70.48,70.48,0,0,0,31.6,71.92a94.32,94.32,0,0,0,30.29-2.31,37.85,37.85,0,0,0,9.37-3.37A9.56,9.56,0,0,0,76.12,60,35.27,35.27,0,0,0,74.11,34.38Z"/><path class="cls-2" d="M39.34,74.87a81.43,81.43,0,0,1-26.26-4.5C5.59,67.83,1.76,61.53.54,52.52S2.14,36.33,7.05,30C11,25,15.72,21.14,20.46,17.36A69,69,0,0,0,30.19,8c1.67-2,2.49-2.13,4.54-.77a1.49,1.49,0,0,0,2.32-.37c2-2.28,2.27-2.25,4.44-.38a3,3,0,0,1,.42.37C43,8.1,44,8.49,45.27,7.22a1.3,1.3,0,0,1,1.5-.12,8.46,8.46,0,0,1,2.62,1.78c3.76,3.69,8,6.39,12.21,9.19,3.88,2.59,7.68,5.32,10.76,9.27,4.47,5.72,6.78,12.62,7.3,20.46a36.52,36.52,0,0,1-2,14.27,10.57,10.57,0,0,1-4.43,5.81c-3.84,2.43-8,3.58-12.19,4.53A105.83,105.83,0,0,1,39.34,74.87ZM59,19.35a89.47,89.47,0,0,1-11.58-9c-.21-.2-.48-.33-.71-.51a.69.69,0,0,0-1,0C44,11.28,42.48,10.91,41,9.25c-.15-.17-.37-.26-.51-.44-.82-1-1.47-.87-2.31.12-1.82,2.13-2,2.16-4.16.68-1.09-.74-1.81-.53-2.63.47a64.85,64.85,0,0,1-10.08,9.63c-2.71,2.15-5.4,4.34-7.94,6.78A38.59,38.59,0,0,0,4.66,38.16a25,25,0,0,0-1.4,17.2c1.37,5.8,4.15,10,9,12A70.48,70.48,0,0,0,31.6,71.92a94.32,94.32,0,0,0,30.29-2.31,37.85,37.85,0,0,0,9.37-3.37A9.56,9.56,0,0,0,76.12,60a35.27,35.27,0,0,0-2-25.64C70.67,27,64.91,23,59,19.35Z"/><path class="cls-3" d="M3.26,55.36c1.18.51,1.76,1.86,2.57,2.84A25.48,25.48,0,0,0,20.9,67.13a66.14,66.14,0,0,0,16.18.94,77.8,77.8,0,0,0,11.21-1.52,82.55,82.55,0,0,0,14.39-4.33,26.23,26.23,0,0,0,3.77-1.84c3-1.74,4.49-4.73,5.26-8.5a45.47,45.47,0,0,0,.77-8.55,22.15,22.15,0,0,0-4.21-13.81c-2.58-3.49-5.66-6.21-8.64-9.1-.3-.3-.64-.52-.64-1.07C64.91,23,70.67,27,74.11,34.38a35.27,35.27,0,0,1,2,25.64,9.56,9.56,0,0,1-4.86,6.22,37.85,37.85,0,0,1-9.37,3.37A94.32,94.32,0,0,1,31.6,71.92a70.48,70.48,0,0,1-19.38-4.61C7.41,65.38,4.63,61.16,3.26,55.36Z"/><path class="cls-4" d="M37.53,13.92a14.62,14.62,0,0,1,1.83,8.89,5.31,5.31,0,0,1-.69,2.11,14,14,0,0,1-8.9,6.35,5.76,5.76,0,0,1,.91-1.86,36.31,36.31,0,0,1,3.86-5.16,8.82,8.82,0,0,0,2.11-5.09A39.25,39.25,0,0,1,37.53,13.92Z"/><path class="cls-4" d="M41.16,33.28a27.11,27.11,0,0,1,.35-7.78,27.36,27.36,0,0,0-.14-9.34c-.1-.66-.13-1.34-.2-2.05,2.29,1.21,4.32,5.16,4.19,8.39A18.11,18.11,0,0,1,41.16,33.28Z"/><path class="cls-4" d="M51,30.28a18.68,18.68,0,0,1-1.75-6A19.33,19.33,0,0,0,47,17.37c-.46-.84-.81-1.77-1.22-2.68,1.63-.33,4.38,1.37,5.51,3.64C53.24,22.24,52.4,26.14,51,30.28Z"/><path class="cls-4" d="M33.66,13.9C34.9,18.62,32.88,23,29.21,24a8.64,8.64,0,0,1-5.92-.35A8.41,8.41,0,0,1,26.54,21a11.64,11.64,0,0,0,6-5.57A11.68,11.68,0,0,1,33.66,13.9Z"/><path class="cls-5" d="M50.14,50.89a4.48,4.48,0,0,1-4.25-4.74,4.34,4.34,0,1,1,8.64.18A4.44,4.44,0,0,1,50.14,50.89Z"/><path class="cls-5" d="M35.11,58C32.28,57.75,30,56,27.9,53.82a1.15,1.15,0,0,1-.07-1.49.76.76,0,0,1,1.22-.2c.57.45,1.09,1,1.66,1.45,3.64,2.94,6.58,2.74,9.94-.66a2.2,2.2,0,0,0,.2-.23c.49-.64,1-1,1.61-.22a1.36,1.36,0,0,1-.33,1.86A11.49,11.49,0,0,1,35.11,58Z"/><path class="cls-5" d="M21.93,42a4.56,4.56,0,0,1,4.12,4.91,4.51,4.51,0,0,1-4.5,4.46,4.61,4.61,0,0,1-4.14-4.76A4.52,4.52,0,0,1,21.93,42Z"/><path class="cls-6" d="M13.72,53.48a2.42,2.42,0,0,1-2.65-2.2,2.47,2.47,0,0,1,2.63-2.05c1.45,0,2.74,1,2.74,2.12S15.22,53.48,13.72,53.48Z"/><path class="cls-6" d="M57.16,53.57c-1.51,0-2.78-1-2.73-2.11s1.27-2,2.7-2,2.73.84,2.74,2S58.73,53.58,57.16,53.57Z"/></svg>