<svg id="Layer_1" data-name="Layer 1" xmlns="http://www.w3.org/2000/svg" xmlns:xlink="http://www.w3.org/1999/xlink" viewBox="0 0 192 192"><defs><style>.cls-1{fill:url(#linear-gradient);}.cls-2,.cls-3{fill:#070707;}.cls-2{opacity:0.14;}.cls-3{opacity:0.3;}.cls-4{fill:#08090a;}.cls-5{fill:#f18a5c;}</style><linearGradient id="linear-gradient" x1="100.54" y1="42.93" x2="92.74" y2="170.51" gradientUnits="userSpaceOnUse"><stop offset="0" stop-color="#f9f1e1"/><stop offset="1" stop-color="#faf8fa"/></linearGradient></defs><path class="cls-1" d="M176,82.34c-8.07-17.28-21.58-26.61-35.47-35.26h0c-9.37-6.43-18.67-13-27.16-21.12a15.65,15.65,0,0,0-1.68-1.22,1.63,1.63,0,0,0-2.27,0c-4,3.39-7.61,2.52-11-1.37-.35-.4-.85-.62-1.19-1-1.91-2.37-3.44-2-5.43.29-4.25,5-4.61,5.07-9.75,1.59C79.5,22.5,77.81,23,75.9,25.33,68.78,34,60.68,41.23,52.25,47.92,45.9,53,39.58,58.09,33.63,63.83,25.57,71.59,18.2,80.12,13.1,91.19c-5.93,12.86-6.9,26.33-3.28,40.36h0c3.21,13.59,9.75,23.5,21,28A164.25,164.25,0,0,0,76.3,170.37c23.87,2.35,47.55,0,71-5.4a89.21,89.21,0,0,0,22-7.9c5.53-2.91,9.33-7.5,11.41-14.6C186.88,121.45,184.92,101.44,176,82.34Z"/><path class="cls-2" d="M9.82,131.55c2.76,1.18,4.13,4.36,6,6.65,9.89,11.9,21.81,18.18,35.34,21,12.61,2.59,25.27,2.71,37.94,2.19,8.81-.36,17.58-1.9,26.31-3.56a194.37,194.37,0,0,0,33.75-10.16,59.46,59.46,0,0,0,8.83-4.31c6.93-4.08,10.54-11.1,12.34-19.94a106.48,106.48,0,0,0,1.82-20.06c.14-12.21-3-23.09-9.89-32.39-6.05-8.18-13.26-14.58-20.25-21.35-.72-.69-1.52-1.2-1.51-2.5,13.89,8.65,27.4,18,35.47,35.26,8.91,19.1,10.87,39.11,4.72,60.13-2.08,7.1-5.88,11.69-11.41,14.6a89.21,89.21,0,0,1-22,7.9c-23.49,5.37-47.17,7.75-71,5.41a164.62,164.62,0,0,1-45.48-10.82C19.57,155.05,13,145.14,9.82,131.55Z"/><path class="cls-3" d="M90.21,34.35c3.55,6.71,5.21,13.39,4.29,20.85a12.59,12.59,0,0,1-1.63,4.95C87.72,68.6,80.53,72.72,72,75a13.88,13.88,0,0,1,2.13-4.35,85.47,85.47,0,0,1,9.06-12.11,20.79,20.79,0,0,0,5-11.94A86.45,86.45,0,0,1,90.21,34.35Z"/><path class="cls-3" d="M98.71,79.76a63.7,63.7,0,0,1,.84-18.26c1.4-7.41.77-14.62-.34-21.9-.23-1.55-.31-3.14-.47-4.82,5.38,2.85,10.15,12.1,9.82,19.69C108.15,64.22,104.6,72.31,98.71,79.76Z"/><path class="cls-3" d="M121.7,72.71a43.74,43.74,0,0,1-4.09-14,45.43,45.43,0,0,0-5.21-16.24c-1.08-2-1.9-4.14-2.86-6.29,3.81-.77,10.26,3.22,12.92,8.54C127.05,53.86,125.09,63,121.7,72.71Z"/><path class="cls-3" d="M81.13,34.29C84,45.36,79.3,55.69,70.69,58c-5,1.33-10,1.07-13.89-.83A19.68,19.68,0,0,1,64.43,51a27.38,27.38,0,0,0,14-13.09A30.63,30.63,0,0,1,81.13,34.29Z"/><path class="cls-4" d="M119.78,121.06c-5.62-.07-10.11-5.07-10-11.12S114.6,99,120.13,99.15s10.06,5.17,10,11.21S125.47,121.13,119.78,121.06Z"/><path class="cls-4" d="M84.54,137.83c-6.65-.67-12-4.86-16.93-9.89a2.68,2.68,0,0,1-.15-3.5,1.79,1.79,0,0,1,2.86-.48c1.33,1.06,2.56,2.33,3.88,3.4,8.54,6.91,15.44,6.44,23.32-1.54a5.82,5.82,0,0,0,.46-.53c1.15-1.5,2.45-2.4,3.79-.52,1.2,1.69.35,3.18-.77,4.37A27,27,0,0,1,84.54,137.83Z"/><path class="cls-4" d="M53.61,100.24c5.61.29,10,5.46,9.68,11.51s-5.12,10.79-10.57,10.45-9.8-5.31-9.7-11.15C43.12,104.87,48,100,53.61,100.24Z"/><path class="cls-5" d="M34.35,127.13c-3.5,0-6.33-2.34-6.22-5.15.12-2.65,2.86-4.78,6.19-4.82s6.41,2.29,6.42,5S37.87,127.12,34.35,127.13Z"/><path class="cls-5" d="M136.24,127.36c-3.54,0-6.51-2.33-6.39-5s3-4.63,6.32-4.69c3.67-.06,6.41,2,6.43,4.8S139.93,127.37,136.24,127.36Z"/></svg>