<svg xmlns="http://www.w3.org/2000/svg" xmlns:xlink="http://www.w3.org/1999/xlink" viewBox="0 0 80 80"><defs><style>.cls-1{fill:none;}.cls-2{isolation:isolate;}.cls-3{clip-path:url(#clip-path);}.cls-4{opacity:0.7;mix-blend-mode:screen;fill:url(#radial-gradient);}.cls-5{fill:url(#radial-gradient-2);}.cls-6,.cls-7{fill:#070707;}.cls-6{opacity:0.14;}.cls-7{opacity:0.3;}.cls-8{fill:#08090a;}.cls-9{fill:#f18a5c;}.cls-10{fill:url(#linear-gradient);}</style><clipPath id="clip-path"><rect class="cls-1" x="-1055.22" y="-764.8" width="1334.83" height="606.74"/></clipPath><radialGradient id="radial-gradient" cx="16.97" cy="-212.66" r="714.61" gradientTransform="translate(245.3 -518.13) scale(1.1 1.06)" gradientUnits="userSpaceOnUse"><stop offset="0" stop-color="#711bba"/><stop offset="0.03" stop-color="#6c1ab2"/><stop offset="0.29" stop-color="#461173"/><stop offset="0.52" stop-color="#280a42"/><stop offset="0.73" stop-color="#12041e"/><stop offset="0.89" stop-color="#050108"/><stop offset="1"/></radialGradient><radialGradient id="radial-gradient-2" cx="38.88" cy="4.04" r="44.08" gradientUnits="userSpaceOnUse"><stop offset="0" stop-color="#eb90b0"/><stop offset="1" stop-color="#faf8fa"/></radialGradient><linearGradient id="linear-gradient" x1="54.15" y1="66.22" x2="27.12" y2="69.34" gradientUnits="userSpaceOnUse"><stop offset="0" stop-color="#ec3fe0"/><stop offset="1" stop-color="#df376a"/></linearGradient></defs><g class="cls-2"><g id="Layer_1" data-name="Layer 1"><g class="cls-3"><ellipse class="cls-4" cx="263.88" cy="-743.92" rx="782.71" ry="758.71"/></g><path class="cls-5" d="M68.59,24.52c-2.88-6.18-7.71-9.51-12.67-12.6h0a76.07,76.07,0,0,1-9.71-7.55,5.13,5.13,0,0,0-.6-.44.58.58,0,0,0-.81,0c-1.42,1.21-2.72.9-3.93-.49-.13-.15-.31-.22-.43-.37-.68-.85-1.23-.73-1.94.1C37,5,36.86,5,35,3.75c-.91-.62-1.52-.44-2.2.39a54.5,54.5,0,0,1-8.45,8.08c-2.27,1.8-4.53,3.63-6.66,5.68a32.47,32.47,0,0,0-7.34,9.78A21,21,0,0,0,9.2,42.1h0c1.15,4.86,3.48,8.4,7.51,10A58.62,58.62,0,0,0,33,56a78.77,78.77,0,0,0,25.39-1.93,32.09,32.09,0,0,0,7.85-2.82A8.08,8.08,0,0,0,70.28,46,29.53,29.53,0,0,0,68.59,24.52Z"/><path class="cls-6" d="M9.2,42.1c1,.43,1.48,1.56,2.16,2.38A21.34,21.34,0,0,0,24,52a55.12,55.12,0,0,0,13.56.78A65.3,65.3,0,0,0,47,51.48,69.32,69.32,0,0,0,59,47.85a22.45,22.45,0,0,0,3.16-1.54c2.48-1.46,3.76-4,4.41-7.13A38.22,38.22,0,0,0,67.23,32,18.61,18.61,0,0,0,63.7,20.44a64.09,64.09,0,0,0-7.24-7.63c-.26-.25-.54-.43-.54-.89,5,3.09,9.79,6.42,12.67,12.6A29.53,29.53,0,0,1,70.28,46a8,8,0,0,1-4.08,5.22,31.72,31.72,0,0,1-7.85,2.83A78.77,78.77,0,0,1,33,56a58.62,58.62,0,0,1-16.25-3.87C12.68,50.5,10.35,47,9.2,42.1Z"/><path class="cls-7" d="M37.93,7.36a12.22,12.22,0,0,1,1.53,7.46,4.41,4.41,0,0,1-.58,1.77,11.7,11.7,0,0,1-7.46,5.31,5.08,5.08,0,0,1,.76-1.55A30.72,30.72,0,0,1,35.42,16a7.35,7.35,0,0,0,1.77-4.26A32.08,32.08,0,0,1,37.93,7.36Z"/><path class="cls-7" d="M41,23.6a22.47,22.47,0,0,1,.3-6.53,23.12,23.12,0,0,0-.12-7.83C41.06,8.69,41,8.12,41,7.52c1.92,1,3.63,4.32,3.51,7A15.26,15.26,0,0,1,41,23.6Z"/><path class="cls-7" d="M49.18,21.08a15.69,15.69,0,0,1-1.46-5,16.25,16.25,0,0,0-1.86-5.81c-.38-.7-.68-1.48-1-2.24,1.36-.28,3.67,1.14,4.62,3.05C51.1,14.34,50.39,17.61,49.18,21.08Z"/><path class="cls-7" d="M34.68,7.34c1,4-.65,7.65-3.72,8.47a7.26,7.26,0,0,1-5-.29,7,7,0,0,1,2.73-2.19,9.78,9.78,0,0,0,5-4.68A11.68,11.68,0,0,1,34.68,7.34Z"/><path class="cls-8" d="M48.5,38.35a3.75,3.75,0,0,1-3.56-4,3.63,3.63,0,1,1,7.24.15A3.72,3.72,0,0,1,48.5,38.35Z"/><path class="cls-8" d="M35.9,44.35c-2.37-.24-4.27-1.74-6-3.54a1,1,0,0,1-.05-1.25.64.64,0,0,1,1-.17c.48.38.92.83,1.39,1.22,3,2.46,5.52,2.3,8.33-.55l.17-.19c.41-.54.87-.86,1.35-.19a1.14,1.14,0,0,1-.27,1.56A9.66,9.66,0,0,1,35.9,44.35Z"/><path class="cls-8" d="M24.85,30.91A3.83,3.83,0,0,1,28.31,35a3.77,3.77,0,0,1-3.78,3.73,3.86,3.86,0,0,1-3.47-4A3.79,3.79,0,0,1,24.85,30.91Z"/><path class="cls-9" d="M18,40.52a2,2,0,0,1-2.22-1.84A2.07,2.07,0,0,1,18,37a2.13,2.13,0,0,1,2.29,1.78A2.08,2.08,0,0,1,18,40.52Z"/><path class="cls-9" d="M54.38,40.6c-1.26,0-2.33-.83-2.28-1.77a2.14,2.14,0,0,1,2.26-1.68c1.31,0,2.29.71,2.3,1.72S55.7,40.61,54.38,40.6Z"/><path class="cls-10" d="M53,58.16c1.06,4.49-.55,8-4.05,10.86-1.15.93-2.43,1.69-3.66,2.51-2.75,1.83-4,4.26-3.12,7.59a1.08,1.08,0,0,1,0,.36c0,.12-.08.23-.17.52a8.36,8.36,0,0,1-4.45-6.78c-.12-1.23-.2-2.45-.3-3.68a3.15,3.15,0,0,0-2.85-3.14,3.83,3.83,0,0,0-4,2.06,11.49,11.49,0,0,0-.56,1.24C26.49,65.9,26.42,61.53,27,57,35.46,62.5,44,62.13,53,58.16Z"/></g></g></svg>